<?xml version="1.0" standalone="no"?>
<!DOCTYPE svg PUBLIC "-//W3C//DTD SVG 20010904//EN"
 "http://www.w3.org/TR/2001/REC-SVG-20010904/DTD/svg10.dtd">
<svg version="1.0" xmlns="http://www.w3.org/2000/svg"
 width="70.000000pt" height="70.000000pt" viewBox="0 0 70.000000 70.000000"
 preserveAspectRatio="xMidYMid meet">
<metadata>
Created by potrace 1.11, written by Peter Selinger 2001-2013
</metadata>
<g transform="translate(0.000000,70.000000) scale(0.100000,-0.100000)"
fill="#000000" stroke="none">
<path d="M0 350 l0 -350 80 0 c50 0 80 4 80 11 0 5 5 7 10 4 6 -3 13 1 16 9 3
9 12 16 20 16 12 0 19 19 15 43 0 4 2 7 7 7 4 0 7 30 6 68 -1 37 2 69 6 72 6
4 195 5 221 1 3 -1 6 -52 5 -113 l-1 -113 74 -3 c63 -3 78 0 107 20 19 13 34
29 34 36 0 7 4 11 9 7 6 -3 10 116 11 315 l0 320 -115 0 c-85 0 -115 -3 -116
-12 -5 -65 -2 -211 5 -215 5 -3 32 -6 60 -7 l50 -1 2 -65 c1 -40 -4 -74 -13
-87 -7 -13 -11 -23 -8 -23 3 0 -2 -8 -12 -18 -25 -24 -71 -47 -80 -38 -4 4 -7
58 -6 120 l1 112 -110 0 c-62 -1 -113 3 -118 9 -4 6 -8 53 -8 105 0 52 0 101
-1 108 -1 9 -31 12 -116 12 l-115 0 0 -350z"/>
</g>
</svg>
